<svg id="Lag_1" data-name="Lag 1" xmlns="http://www.w3.org/2000/svg" viewBox="0 0 164.09 237.99"><defs><style>.cls-1,.cls-7{fill:#fff;}.cls-1{opacity:0.5;}.cls-2{fill:#e7e7b5;}.cls-3{fill:#f7f7c4;}.cls-4{fill:#838f45;}.cls-5{fill:#4f6534;}.cls-6{fill:#fafcf6;}.cls-7{opacity:0.3;}.cls-8{fill:#221f20;opacity:0.1;}</style></defs><title>Simon1</title><polygon class="cls-1" points="82.05 127.8 164.09 32.26 0 32.26 82.05 127.8"/><polygon class="cls-2" points="82.05 117.03 150.22 37.65 13.88 37.65 82.05 117.03"/><rect class="cls-3" x="162.11" y="18.93" width="3.61" height="119.36" transform="translate(-17.27 -80.98) rotate(23.08)"/><ellipse class="cls-4" cx="172.27" cy="61.57" rx="16.82" ry="12.32" transform="translate(-71.74 45.75) rotate(-21.92)"/><path class="cls-5" d="M186.11,56a4.14,4.14,0,1,1-5.39-2.3A4.14,4.14,0,0,1,186.11,56Z" transform="translate(-61.21 -23)"/><path class="cls-4" d="M150.57,82.14c6.32-2.54,14.24,2.38,17.71,11s1.16,17.66-5.15,20.2-14.24-2.39-17.7-11S144.26,84.68,150.57,82.14Z" transform="translate(-61.21 -23)"/><path class="cls-5" d="M151.28,83.89a4.15,4.15,0,1,1-2.3,5.4A4.15,4.15,0,0,1,151.28,83.89Z" transform="translate(-61.21 -23)"/><path class="cls-6" d="M216.05,55.26l-67,78.06a7.58,7.58,0,0,1-11.5,0l-67-78.06H61.21l82,95.54,82.05-95.54Z" transform="translate(-61.21 -23)"/><path class="cls-6" d="M191.41,261c0-9.68-35.41-24.42-35.41-24.42a17.06,17.06,0,0,1-7.37-14v-80H137.89v80a17,17,0,0,1-7.37,14S95.12,251.72,95.12,261Z" transform="translate(-61.21 -23)"/><polygon class="cls-7" points="24.02 32.26 65.47 104.92 82.05 115.96 49.6 31.95 24.02 32.26"/><path class="cls-8" d="M156,236.59a17.09,17.09,0,0,1-7.37-14v-78l76.68-89.29H143.26V150.8h0V261h48.15C191.41,251.32,156,236.59,156,236.59Z" transform="translate(-61.21 -23)"/></svg>